<svg width="1329" height="226" viewBox="0 0 1329 226" fill="none" xmlns="http://www.w3.org/2000/svg">
<path d="M346.718 74.3664C343.562 74.3664 340.801 75.2913 338.566 76.7447C337.908 68.4204 329.888 61.8138 320.026 61.8138C315.819 61.8138 312.006 63.003 308.85 64.985C305.563 59.6997 298.857 56 291.362 56C280.581 56 271.771 63.3994 271.508 72.6486C268.878 71.0631 265.591 70.006 262.041 70.006C253.1 70.006 246 76.2162 246 83.7478C246 91.2793 253.232 97.4895 262.041 97.4895C264.539 97.4895 266.906 96.961 269.01 96.1682C271.114 98.5466 274.401 100 278.082 100C282.816 100 286.892 97.6216 288.601 94.1862C292.283 97.7538 297.542 100 303.591 100C308.85 100 313.584 98.2823 317.134 95.5075C319.237 98.2823 322.788 100 326.864 100C331.597 100 335.673 97.6216 337.382 94.1862C339.749 96.1682 343.036 97.3574 346.586 97.3574C353.95 97.3574 359.998 92.2042 359.998 85.8619C360.129 79.5195 354.081 74.3664 346.718 74.3664Z" fill="url(#paint0_linear_3259_55)"/>
<path d="M1311.07 45.4205C1307.02 45.4205 1303.48 46.6 1300.62 48.4534C1299.78 37.8383 1289.5 29.4137 1276.86 29.4137C1271.47 29.4137 1266.58 30.9301 1262.54 33.4575C1258.33 26.7178 1249.73 22 1240.13 22C1226.31 22 1215.02 31.4356 1214.69 43.2301C1211.32 41.2082 1207.11 39.8603 1202.56 39.8603C1191.1 39.8603 1182 47.7795 1182 57.3836C1182 66.9877 1191.27 74.9068 1202.56 74.9068C1205.76 74.9068 1208.79 74.2329 1211.49 73.2219C1214.18 76.2548 1218.39 78.1082 1223.11 78.1082C1229.18 78.1082 1234.4 75.0753 1236.59 70.6945C1241.31 75.2438 1248.05 78.1082 1255.8 78.1082C1262.54 78.1082 1268.61 75.9178 1273.15 72.3794C1275.85 75.9178 1280.4 78.1082 1285.62 78.1082C1291.69 78.1082 1296.91 75.0753 1299.1 70.6945C1302.14 73.2219 1306.35 74.7383 1310.9 74.7383C1320.33 74.7383 1328.08 68.1671 1328.08 60.0794C1328.25 51.9918 1320.5 45.4205 1311.07 45.4205Z" fill="url(#paint1_linear_3259_55)"/>
<path d="M98.4802 24.0747C94.5157 24.0747 90.5512 25.431 87.5778 27.4655C86.9171 16.2758 76.3451 7.45976 63.1302 7.45976C57.5138 7.45976 52.5581 9.15518 48.5936 11.8678C44.2987 4.74713 35.709 0 25.4674 0C11.2613 0 -0.301773 9.8333 -0.632147 22.3793C-4.26627 20.0057 4.27074 19.5 -0.354498 19.5C-0.354498 27.4655 -0.354525 29.8391 -0.354525 40.0115C-0.354525 50.1839 -0.354561 40.0115 -0.354519 48.5C-0.35447 52.8162 -1.47337 60.0172 1.5 59C4.14299 62.0517 3.66276 59 8.288 59C14.5651 59 19.8511 55.6092 22.1637 51.2011C26.7889 55.9483 34.0572 59 41.6558 59C48.5937 59 54.5404 56.6264 59.496 52.8965C62.139 56.6264 66.7642 59 72.3806 59C78.6577 59 83.9437 55.6092 86.2564 51.2011C89.5601 53.9138 93.5245 55.2701 98.4802 55.2701C108.061 55.2701 115.99 48.4885 115.99 40.0115C116.32 31.1954 108.391 24.0747 98.4802 24.0747Z" fill="url(#paint2_linear_3259_55)"/>
<path d="M1278.71 171.236C1273.21 171.236 1267.71 173.052 1263.59 175.776C1262.67 160.793 1248.01 148.988 1229.69 148.988C1221.9 148.988 1215.03 151.259 1209.53 154.891C1203.57 145.356 1191.66 139 1177.46 139C1157.76 139 1141.73 152.167 1141.27 168.965C1136.23 165.787 1130.73 164.425 1124.32 164.425C1108.29 164.425 1095 175.322 1095 188.943C1095 202.563 1108.29 213.46 1124.32 213.46C1128.9 213.46 1133.02 212.552 1137.15 211.19C1140.81 215.276 1147.23 218 1153.64 218C1162.34 218 1169.67 213.46 1172.88 207.557C1179.29 213.914 1189.37 218 1199.91 218C1209.53 218 1217.78 214.822 1224.65 209.828C1228.31 214.822 1234.73 218 1242.51 218C1251.22 218 1258.55 213.46 1261.76 207.557C1266.34 211.19 1271.83 213.006 1278.71 213.006C1291.99 213.006 1302.99 203.925 1302.99 192.575C1303.44 180.77 1292.45 171.236 1278.71 171.236Z" fill="url(#paint3_linear_3259_55)"/>
<path d="M269.706 179.236C264.208 179.236 258.711 181.052 254.588 183.776C253.672 168.793 239.012 156.988 220.687 156.988C212.899 156.988 206.027 159.259 200.53 162.891C194.574 153.356 182.663 147 168.461 147C148.762 147 132.728 160.167 132.27 176.965C127.231 173.787 121.733 172.425 115.32 172.425C99.2856 172.425 86 183.322 86 196.943C86 210.563 99.2856 221.46 115.32 221.46C119.901 221.46 124.024 220.552 128.147 219.19C131.812 223.276 138.226 226 144.639 226C153.344 226 160.673 221.46 163.88 215.557C170.294 221.914 180.373 226 190.909 226C200.53 226 208.776 222.822 215.648 217.828C219.313 222.822 225.726 226 233.514 226C242.219 226 249.549 221.46 252.755 215.557C257.337 219.19 262.834 221.006 269.706 221.006C282.991 221.006 293.986 211.925 293.986 200.575C294.444 188.77 283.449 179.236 269.706 179.236Z" fill="url(#paint4_linear_3259_55)"/>
<path d="M1171.97 59.4072L1171.88 72.5793" stroke="#EEF9FC" stroke-width="0.5411" stroke-miterlimit="10"/>
<path d="M1184.86 59.4072L1184.68 72.5793" stroke="#EEF9FC" stroke-width="0.5411" stroke-miterlimit="10"/>
<path d="M1182.82 59.4072L1182.64 72.5793" stroke="#EEF9FC" stroke-width="0.5411" stroke-miterlimit="10"/>
<path d="M1174.01 59.4072L1173.92 72.5793" stroke="#EEF9FC" stroke-width="0.5411" stroke-miterlimit="10"/>
<path d="M1204.16 17.3864C1202.95 15.3456 1200.82 14.2325 1198.59 14.3253C1198.04 12.9339 1197.39 11.8207 1196.65 10.8931C1194.7 8.20305 1190.99 7.55373 1188.2 9.31618C1187.74 9.59447 1187.28 9.96552 1186.81 10.3366C1186.16 9.31619 1173.73 9.96551 1172.81 11.4497C1171.97 10.6148 1171.14 9.87275 1170.39 9.31618C1167.7 7.46096 1163.9 8.01753 1161.86 10.5221C1161.03 11.5425 1160.28 12.8411 1159.63 14.418C1157.04 13.8615 1154.25 14.9746 1152.95 17.3864C1151.29 20.3547 1149.99 24.9928 1152.12 31.8571C1155.65 43.0812 1171.6 61.2623 1171.69 61.6334H1184.96C1185.05 61.2623 1201.47 43.0812 1204.99 31.8571C1207.13 24.9928 1205.83 20.3547 1204.16 17.3864Z" fill="#FD9264"/>
<path opacity="0.22" d="M1162.88 17.6648L1160.56 14.1399C1160.56 14.1399 1155.46 13.4906 1155.27 23.6015C1155.09 33.6197 1175.22 62.0046 1175.22 62.0046L1162.88 17.6648Z" fill="#FD9264"/>
<path opacity="0.22" d="M1195.07 17.6648L1197.39 14.1399C1197.39 14.1399 1202.49 13.4906 1202.67 23.6015C1202.86 33.6197 1182.73 62.0046 1182.73 62.0046L1195.07 17.6648Z" fill="#FD9264"/>
<path d="M1171.23 60.613C1171.32 61.0768 1171.69 61.4479 1172.25 61.4479H1178.56L1178.19 59.2216C1178 57.7374 1177.91 56.346 1177.91 54.8619C1178.09 47.5337 1179.39 34.1761 1177.63 22.21C1176.61 14.9746 1173.27 11.1714 1170.39 9.22341C1167.7 7.36819 1163.9 7.92476 1161.86 10.4293C1159.73 13.1194 1157.59 17.6647 1158.71 24.9928C1160.47 36.959 1168.08 49.3889 1170.3 56.346C1170.67 57.7374 1171.04 59.1289 1171.23 60.613Z" fill="white"/>
<path opacity="0.1" d="M1174.29 15.4385L1172.9 11.4498C1172.9 11.4498 1168.17 9.59457 1165.48 19.2417C1162.79 28.9816 1175.31 61.448 1175.31 61.448L1174.29 15.4385Z" fill="#2B6EBE"/>
<path d="M1196.74 10.8005C1194.79 8.1104 1191.08 7.46106 1188.3 9.22352C1185.42 11.0787 1181.9 14.7892 1180.6 21.9318C1178.46 33.898 1179.3 47.2555 1179.21 54.5837C1179.21 56.0678 1179.02 57.4593 1178.74 58.9434L1178.28 61.448H1184.68C1185.14 61.448 1185.61 61.0769 1185.7 60.6131C1185.98 59.2217 1186.35 57.7375 1186.81 56.4389C1189.32 49.5746 1197.29 37.3301 1199.43 25.4567C1200.73 18.2213 1198.78 13.4905 1196.74 10.8005Z" fill="white"/>
<path opacity="0.1" d="M1183.66 15.4385L1185.05 11.4498C1185.05 11.4498 1189.78 9.59457 1192.47 19.2417C1195.16 28.9816 1182.64 61.448 1182.64 61.448L1183.66 15.4385Z" fill="#2B6EBE"/>
<path d="M1175.22 60.6131V61.4479H1183.2V60.6131C1183.2 59.1289 1183.75 57.5519 1183.94 56.0678C1185.14 48.5541 1189.13 34.9182 1189.13 22.3027C1189.13 14.6963 1186.26 10.2438 1183.66 7.73927C1181.15 5.42024 1177.17 5.42024 1174.66 7.73927C1171.97 10.2438 1169.19 14.6036 1169.19 22.3027C1169.19 35.011 1173.08 48.5541 1174.29 56.0678C1174.57 57.5519 1175.22 59.1289 1175.22 60.6131Z" fill="#FD9264"/>
<path opacity="0.17" d="M1151.19 22.3027C1150.82 24.8073 1150.91 27.9612 1152.12 31.7644C1155.65 42.9884 1171.6 61.1696 1171.69 61.5406H1184.96C1185.05 61.3551 1190.06 55.6967 1195.16 48.7396C1168.08 49.4817 1156.29 34.1761 1151.19 22.3027Z" fill="#FD9264"/>
<path d="M1185.05 62.0045H1171.51L1171.04 60.7058H1185.61L1185.05 62.0045Z" fill="#0098DB"/>
<path d="M1182.82 78.5161H1173.83C1172.53 78.5161 1171.51 77.4957 1171.51 76.197V68.8689H1185.05V76.197C1185.05 77.4957 1184.03 78.5161 1182.82 78.5161Z" fill="#0098DB"/>
<path opacity="0.2" d="M1171.51 70.6313V76.2898C1171.51 77.5884 1172.53 78.6088 1173.83 78.6088H1182.82C1184.12 78.6088 1185.14 77.5884 1185.14 76.2898V76.1042C1178.46 75.4549 1174.2 73.0431 1171.51 70.6313Z" fill="#0098DB"/>
<path d="M188.638 100.84L188.52 117.572" stroke="#EEF9FC" stroke-width="0.5411" stroke-miterlimit="10"/>
<path d="M205.016 100.84L204.781 117.572" stroke="#EEF9FC" stroke-width="0.5411" stroke-miterlimit="10"/>
<path d="M202.424 100.84L202.189 117.572" stroke="#EEF9FC" stroke-width="0.5411" stroke-miterlimit="10"/>
<path d="M191.23 100.84L191.113 117.572" stroke="#EEF9FC" stroke-width="0.5411" stroke-miterlimit="10"/>
<path d="M229.525 47.4635C227.993 44.8712 225.283 43.4573 222.455 43.5751C221.748 41.8077 220.923 40.3937 219.981 39.2154C217.506 35.7984 212.793 34.9736 209.258 37.2124C208.669 37.5658 208.08 38.0372 207.491 38.5085C206.666 37.2124 190.877 38.0372 189.699 39.9224C188.638 38.862 187.578 37.9193 186.635 37.2124C183.218 34.8558 178.387 35.5628 175.795 38.7441C174.734 40.0403 173.792 41.6899 172.967 43.6929C169.668 42.986 166.133 44.3999 164.483 47.4635C162.362 51.234 160.713 57.1255 163.423 65.8448C167.9 80.1021 188.167 103.197 188.285 103.668H205.134C205.252 103.197 226.108 80.1021 230.585 65.8448C233.295 57.1255 231.646 51.234 229.525 47.4635Z" fill="#FD9264"/>
<path opacity="0.22" d="M177.091 47.817L174.145 43.3395C174.145 43.3395 167.665 42.5147 167.429 55.3581C167.193 68.0836 192.762 104.139 192.762 104.139L177.091 47.817Z" fill="#FD9264"/>
<path opacity="0.22" d="M217.978 47.817L220.923 43.3395C220.923 43.3395 227.404 42.5147 227.64 55.3581C227.875 68.0836 202.306 104.139 202.306 104.139L217.978 47.817Z" fill="#FD9264"/>
<path d="M187.696 102.372C187.813 102.961 188.285 103.432 188.992 103.432H197.004L196.533 100.604C196.297 98.7191 196.179 96.9517 196.179 95.0664C196.415 85.7579 198.065 68.7906 195.826 53.5906C194.53 44.4 190.288 39.569 186.635 37.0946C183.218 34.738 178.387 35.445 175.795 38.6263C173.085 42.0434 170.375 47.817 171.789 57.1255C174.027 72.3254 183.689 88.1145 186.517 96.9517C186.989 98.7191 187.46 100.487 187.696 102.372Z" fill="white"/>
<path opacity="0.1" d="M191.584 44.9892L189.816 39.9226C189.816 39.9226 183.807 37.566 180.39 49.8202C176.973 62.1922 192.88 103.432 192.88 103.432L191.584 44.9892Z" fill="#2B6EBE"/>
<path d="M220.098 39.0978C217.624 35.6807 212.911 34.8559 209.376 37.0946C205.723 39.4512 201.246 44.1644 199.596 53.2372C196.886 68.4372 197.947 85.4045 197.829 94.713C197.829 96.5983 197.593 98.3657 197.24 100.251L196.651 103.432H204.781C205.37 103.432 205.959 102.961 206.077 102.372C206.43 100.604 206.902 98.7192 207.491 97.0696C210.672 88.3503 220.805 72.7968 223.516 57.7147C225.165 48.5241 222.691 42.5148 220.098 39.0978Z" fill="white"/>
<path opacity="0.1" d="M203.485 44.9892L205.252 39.9226C205.252 39.9226 211.261 37.566 214.678 49.8202C218.095 62.1922 202.189 103.432 202.189 103.432L203.485 44.9892Z" fill="#2B6EBE"/>
<path d="M192.762 102.372V103.432H202.895V102.372C202.895 100.487 203.602 98.4835 203.838 96.5982C205.37 87.054 210.437 69.7332 210.437 53.7084C210.437 44.0465 206.784 38.3907 203.485 35.2093C200.303 32.2636 195.237 32.2636 192.055 35.2093C188.638 38.3907 185.103 43.9286 185.103 53.7084C185.103 69.851 190.052 87.054 191.584 96.5982C191.937 98.4835 192.762 100.487 192.762 102.372Z" fill="#FD9264"/>
<path opacity="0.17" d="M162.245 53.7085C161.773 56.8899 161.891 60.8961 163.423 65.727C167.9 79.9844 188.167 103.079 188.285 103.55H205.134C205.252 103.314 211.615 96.1269 218.096 87.2898C183.689 88.2324 168.725 68.7906 162.245 53.7085Z" fill="#FD9264"/>
<path d="M205.252 104.139H188.049L187.46 102.49H205.959L205.252 104.139Z" fill="#0098DB"/>
<path d="M202.424 125.113H190.995C189.345 125.113 188.049 123.817 188.049 122.167V112.859H205.252V122.167C205.252 123.817 203.956 125.113 202.424 125.113Z" fill="#0098DB"/>
<path opacity="0.2" d="M188.049 115.097V122.285C188.049 123.935 189.345 125.231 190.995 125.231H202.424C204.074 125.231 205.37 123.935 205.37 122.285V122.049C196.886 121.225 191.466 118.161 188.049 115.097Z" fill="#0098DB"/>
<defs>
<linearGradient id="paint0_linear_3259_55" x1="302.966" y1="70.8998" x2="302.966" y2="123.833" gradientUnits="userSpaceOnUse">
<stop stop-color="white"/>
<stop offset="0.953125" stop-color="white" stop-opacity="0"/>
</linearGradient>
<linearGradient id="paint1_linear_3259_55" x1="1255.07" y1="23.8741" x2="1255.07" y2="77.2681" gradientUnits="userSpaceOnUse">
<stop stop-color="white"/>
<stop offset="1" stop-color="#F1F2F6" stop-opacity="0"/>
</linearGradient>
<linearGradient id="paint2_linear_3259_55" x1="40.5161" y1="0" x2="40.5161" y2="85.5" gradientUnits="userSpaceOnUse">
<stop stop-color="white"/>
<stop offset="1" stop-color="white" stop-opacity="0"/>
</linearGradient>
<linearGradient id="paint3_linear_3259_55" x1="1199.53" y1="140.958" x2="1199.53" y2="216.065" gradientUnits="userSpaceOnUse">
<stop offset="0.0940014" stop-color="white"/>
<stop offset="1" stop-color="#F1F2F6" stop-opacity="0"/>
</linearGradient>
<linearGradient id="paint4_linear_3259_55" x1="190.53" y1="148.958" x2="190.53" y2="224.065" gradientUnits="userSpaceOnUse">
<stop offset="0.0940014" stop-color="white"/>
<stop offset="1" stop-color="#F1F2F6" stop-opacity="0"/>
</linearGradient>
</defs>
</svg>
